<?xml version="1.0" encoding="UTF-8" standalone="no"?>
<!-- Generator: Adobe Illustrator 26.4.0, SVG Export Plug-In . SVG Version: 6.00 Build 0)  -->

<svg
   version="1.1"
   x="0px"
   y="0px"
   width="356.42035"
   height="228.26964"
   viewBox="0 0 356.42035 228.26964"
   xml:space="preserve"
   id="svg11"
   sodipodi:docname="tapir.svg"
   inkscape:version="1.4 (e7c3feb100, 2024-10-09)"
   xmlns:inkscape="http://www.inkscape.org/namespaces/inkscape"
   xmlns:sodipodi="http://sodipodi.sourceforge.net/DTD/sodipodi-0.dtd"
   xmlns="http://www.w3.org/2000/svg"
   xmlns:svg="http://www.w3.org/2000/svg"
   xmlns:ns="http://ns.adobe.com/SaveForWeb/1.0/"><defs
   id="defs11" /><sodipodi:namedview
   id="namedview11"
   pagecolor="#ffffff"
   bordercolor="#000000"
   borderopacity="0.25"
   inkscape:showpageshadow="2"
   inkscape:pageopacity="0.0"
   inkscape:pagecheckerboard="0"
   inkscape:deskcolor="#d1d1d1"
   inkscape:zoom="2.232"
   inkscape:cx="184.3638"
   inkscape:cy="94.53405"
   inkscape:window-width="2556"
   inkscape:window-height="1369"
   inkscape:window-x="1920"
   inkscape:window-y="0"
   inkscape:window-maximized="1"
   inkscape:current-layer="g11" />
<style
   type="text/css"
   id="style1">
	.st0{fill:#00835B;}
	.st1{fill:#FFFFFF;stroke:#1E3C6F;stroke-width:2;stroke-miterlimit:10;}
	.st2{fill:#FFFFFF;stroke:#1E3C6F;stroke-width:1.5;stroke-miterlimit:10;}
	.st3{fill:#FFFFFF;stroke:#1E3C6F;stroke-miterlimit:10;}
	.st4{fill:#1E3C6F;}
	.st5{fill:#FFFFFF;stroke:#1E3C6F;stroke-width:1.5;stroke-linecap:round;stroke-miterlimit:10;}
	.st6{fill:none;stroke:#1E3C6F;stroke-width:1.5;stroke-miterlimit:10;}
	.st7{fill:#CA8983;}
	.st8{fill:none;stroke:#1E3C6F;stroke-miterlimit:10;}
	.st9{fill:none;stroke:#1E3C6F;stroke-width:2;stroke-miterlimit:10;}
	.st10{fill:#1E3C6F;stroke:#1E3C6F;stroke-width:1.5;stroke-miterlimit:10;}
	.st11{fill:#9FD65C;}
	.st12{fill:#FBC9B1;}
	.st13{fill:#1E3C6F;stroke:#1E3C6F;stroke-width:2;stroke-miterlimit:10;}
	.st14{fill:#FFFFFF;}
	.st15{fill:none;stroke:#FFFFFF;stroke-width:2;stroke-miterlimit:10;}
	.st16{fill:none;stroke:#FFFFFF;stroke-width:1.5;stroke-miterlimit:10;}
	.st17{fill:#F4CD64;}
	.st18{fill:#ED7861;}
	.st19{fill:#1E3C6F;stroke:#FFFFFF;stroke-width:1.5;stroke-miterlimit:10;}
	.st20{fill:#FF981D;}
	.st21{fill:none;stroke:#1E3C6F;stroke-width:3;stroke-miterlimit:10;}
	.st22{fill:#DC6743;}
	.st23{fill:#DCD0C2;}
	.st24{fill:none;stroke:#1E2957;stroke-width:2;stroke-miterlimit:10;}
	.st25{fill:none;stroke:#1E2957;stroke-width:2;stroke-linejoin:round;stroke-miterlimit:10;}
	.st26{fill:none;stroke:#1E2957;stroke-miterlimit:10;}
	.st27{fill:#1E2957;}
	.st28{fill:none;stroke:#1E2957;stroke-width:1.5;stroke-miterlimit:10;}
	.st29{fill:#FFFFFF;stroke:#1E2957;stroke-width:1.5;stroke-miterlimit:10;}
	.st30{fill:#FFFFFF;stroke:#1E2957;stroke-width:2;stroke-miterlimit:10;}
	.st31{fill:#FFB61F;}
	.st32{fill:#D09691;}
	.st33{fill:#83A8BC;}
	.st34{fill:#A4D5C9;}
	.st35{fill:#4ABCBD;}
	.st36{fill:#67B7B6;}
	.st37{fill:none;stroke:#FFFFFF;stroke-width:1.5;stroke-linecap:round;stroke-linejoin:round;stroke-miterlimit:10;}
	.st38{fill:#74D0CB;}
	.st39{fill:none;stroke:#1E3C6F;stroke-width:1.5;stroke-linecap:round;stroke-miterlimit:10;}
	.st40{fill:#8FD0BD;}
	.st41{fill:none;stroke:#1E3C6F;stroke-width:2.4706;stroke-miterlimit:10;}
	.st42{fill:#C58781;}
	.st43{fill:#FFFFFF;stroke:#1E3C6F;stroke-width:2.5;stroke-linecap:round;stroke-linejoin:round;stroke-miterlimit:10;}
	.st44{fill:#FFFFFF;stroke:#1E3C6F;stroke-width:2.5;stroke-miterlimit:10;}
	.st45{fill:#F37D65;}
	.st46{fill:#1E3C6F;stroke:#1E3C6F;stroke-width:1.5;stroke-linejoin:round;stroke-miterlimit:10;}
	.st47{fill:#FFFFFF;stroke:#1E3C6F;stroke-width:2.2944;stroke-linejoin:round;stroke-miterlimit:10;}
	.st48{fill:#FFFFFF;stroke:#1E3C6F;stroke-width:1.5;stroke-linejoin:round;stroke-miterlimit:10;}
	.st49{fill:#57CEB6;}
	.st50{fill:#014E6D;}
	.st51{fill:#428A78;}
	.st52{fill:#3F9BB6;}
	.st53{fill:#1E3C6F;stroke:#1E3C6F;stroke-width:2.5;stroke-miterlimit:10;}
	.st54{fill:#8BC2D1;}
	.st55{fill:none;stroke:#1E3C6F;stroke-width:4;stroke-linecap:round;stroke-miterlimit:10;}
	.st56{fill:none;stroke:#1E3C6F;stroke-width:2.5;stroke-linecap:round;stroke-miterlimit:10;}
	.st57{fill:none;stroke:#1E3C6F;stroke-width:2.5;stroke-linecap:round;stroke-miterlimit:1;}
	.st58{fill:#BCDDCA;}
	.st59{fill:#1E3C6F;stroke:#1E3C6F;stroke-width:3.4204;stroke-miterlimit:10;}
	.st60{fill:#1E3C6F;stroke:#1E3C6F;stroke-miterlimit:10;}
	.st61{fill:#96D049;}
	.st62{fill:#00A1A7;}
	.st63{fill:#7ABFC9;}
	.st64{fill:#1BB2B8;}
	.st65{fill:#FFFFFF;stroke:#1E3C6F;stroke-width:0.75;stroke-miterlimit:10;}
	.st66{fill:#1E3C6F;stroke:#FFFFFF;stroke-width:2;stroke-miterlimit:10;}
	.st67{fill:#FFFFFF;stroke:#1E3C6F;stroke-width:0.3478;stroke-miterlimit:10;}
</style>
<metadata
   id="metadata1">
	<ns:sfw>
		<ns:slices />
		<ns:sliceSourceBounds
   bottomLeftOrigin="true"
   height="3404.3"
   width="4703.3"
   x="827.5"
   y="-3248.1" />
	</ns:sfw>
</metadata>
<g
   id="Layer_5"
   transform="translate(-65.317559,-155.59198)">
</g>
<g
   id="Layer_2"
   transform="translate(-65.317559,-155.59198)">
</g>
<g
   id="Layer_1"
   transform="translate(-65.317559,-155.59198)">
	<g
   id="g11">
		
		<g
   id="g10">
			<path
   class="st4"
   d="m 404.3,268.6 c -11.9,14.5 -15.7,31.9 -18.8,44.9 -2.8,11.6 -4.9,32.7 -2.9,57.6 0,0 -6.9,4 -14.5,3.7 -5.4,-0.2 -9.6,-2.2 -9.6,-2.2 v -57.3 l 16,-34.5 29.8,-12.2"
   id="path1" />
			<g
   id="g9">
				<g
   id="g8">
					<g
   id="g7">
						<path
   class="st4"
   d="m 150.7,180.3 c 0,0 -8.7,-12.4 -23.1,-16.4 0,0 -4.1,11.5 1.8,25.7"
   id="path2" />
						<path
   class="st13"
   d="m 408,205.4 c 0,0 -35.9,-51.3 -108.4,-48.2 -49.2,2.1 -142.9,9.9 -178.7,36.8 -20.9,15.8 -41.4,47 -46.2,65.6 -4.8,18.6 -8.3,48.1 -8.3,48.1 l 8.5,3.5 c 0,0 11,-20.3 17,-23.5 6,-3.2 23.9,-6.5 40,-16.2 0,0 25.1,-4.9 50.5,2.2 17.7,5 27.9,23.6 29.3,27.5 3.7,10.1 9.2,82.3 8.8,78 0,0 11,2.8 21.4,1 0,0 -3.5,-70.4 7.4,-68.9 5.4,0.7 18.4,4.8 35.4,3.7 26,-1.7 45.3,-9 45.3,-9 4.1,2.8 4.6,74.5 4.6,74.5 0,0 5.1,2.8 10.1,2.3 5.1,-0.5 12.3,-3.2 12.3,-3.2 0,0 1.5,-48.2 8.8,-70.8 7.4,-22.6 54.8,-38.9 49.6,-70.3 0,0 2.6,-1.5 3.2,-2.7 2.9,-5.1 5.4,-16.1 -10.6,-30.4 z"
   id="path3" />
						<path
   class="st14"
   d="m 126.5,220.7 c 0,3.1 2.5,5.5 5.5,5.5 3,0 5.5,-2.5 5.5,-5.5 0,-3 -2.5,-5.5 -5.5,-5.5 -3.1,0 -5.5,2.5 -5.5,5.5 z"
   id="path4" />
						<path
   class="st4"
   d="m 129.4,220.7 c 0,1.4 1.1,2.5 2.5,2.5 1.4,0 2.5,-1.1 2.5,-2.5 0,-1.4 -1.1,-2.5 -2.5,-2.5 -1.3,0 -2.5,1.1 -2.5,2.5 z"
   id="path5" />
						<path
   class="st15"
   d="m 155.2,203 c 0,0 11.7,-20.5 33.8,-18.4 0,0 -2,27.4 -18.9,31.8"
   id="path6" />
						<path
   class="st1"
   d="m 330.1,306.1 c 0,0 -3.3,-39 13.6,-64.9 20.4,-31.3 64.4,-35.8 64.4,-35.8 0,0 -13.7,-27.6 -58.8,-42.1 -42.7,-13.7 -105.8,-2.1 -105.8,-2.1 0,0 -21.5,23.9 -12.1,86.2 8.8,58.4 18.1,64 18.1,64 0,0 12,5.5 36.6,4.3 26.1,-1.2 44,-9.6 44,-9.6 z"
   id="path7" />
					</g>
					<path
   class="st6"
   d="m 395.5,207.8 c 0,0 6.1,8.8 8,14.2 1.9,5.3 3.7,18.1 12.6,16.5"
   id="path8" />
				</g>
				<path
   class="st16"
   d="m 88.7,289.6 c 0.1,-2 2.7,-11.1 11.7,-19.6"
   id="path9" />
			</g>
		</g>
	</g>
</g>
<g
   id="side_A-2C"
   transform="translate(-65.317559,-155.59198)">
</g>
<g
   id="name"
   transform="translate(-65.317559,-155.59198)">
</g>
<g
   id="Isolation_Mode"
   transform="translate(-65.317559,-155.59198)">
</g>
</svg>
